<svg version="1.1" id="Layer_1" xmlns="http://www.w3.org/2000/svg" xmlns:xlink="http://www.w3.org/1999/xlink" x="0px" y="0px"
	 width="100%" viewBox="0 0 496 496" enable-background="new 0 0 496 496" xml:space="preserve">
<path fill="#000000" opacity="1.000000" stroke="none" 
	d="
M95.431396,315.205811 
	C105.347595,314.420105 114.810661,313.664215 124.280525,313.006226 
	C126.230614,312.870667 127.761772,312.300110 129.042435,310.751251 
	C133.648224,305.181000 139.246475,300.671021 145.175064,296.649963 
	C148.320648,294.516479 148.948837,291.949799 148.548843,288.541046 
	C148.122849,284.910645 147.921478,281.251282 147.708221,277.599518 
	C147.571579,275.259399 148.165298,273.321167 149.566345,271.162323 
	C152.146317,267.186829 150.497253,262.442657 150.390961,258.021423 
	C150.303085,254.366272 149.982712,250.714890 149.700943,247.066803 
	C149.485733,244.280548 150.854248,243.150681 153.494415,243.023468 
	C156.080307,242.898895 157.703186,243.817490 157.854431,246.578064 
	C158.054886,250.237061 158.246552,253.896866 158.397888,257.558136 
	C158.492920,259.856750 158.467117,262.168304 159.750000,264.307831 
	C163.364868,263.808228 164.939682,261.984467 164.853134,258.575104 
	C164.709503,252.916168 164.681961,247.257828 163.890610,241.631699 
	C163.475098,238.677567 164.026779,236.316956 167.765076,236.062836 
	C171.585541,235.803162 172.099030,238.154068 172.243149,241.118958 
	C172.453461,245.444977 172.923477,249.759476 173.086716,254.086288 
	C173.192047,256.878448 174.321793,257.867615 177.134384,257.610596 
	C183.896362,256.992706 189.815811,253.662796 196.229340,251.952957 
	C197.950455,251.494110 199.500122,250.169250 201.438538,250.835373 
	C202.999191,251.984650 202.169052,254.077927 203.486420,255.517456 
	C206.611160,256.523895 209.894241,255.390045 213.171539,255.258942 
	C215.776962,255.154709 217.330276,255.860687 217.460571,258.743378 
	C217.610825,262.067993 217.971649,265.382538 218.184723,268.705078 
	C218.328339,270.944244 217.699905,272.669495 214.739868,272.858124 
	C212.619751,270.704620 212.908005,267.783508 212.856415,265.070984 
	C212.798889,262.044891 211.464005,260.935486 208.522751,261.095154 
	C199.547516,261.582306 190.566132,261.955231 181.587646,262.383331 
	C178.537048,262.528809 176.975052,263.995300 177.393509,267.190277 
	C177.458191,267.684082 177.448608,268.188324 177.462006,268.688049 
	C177.685043,277.004944 177.682785,276.963654 169.477997,277.331207 
	C167.486832,277.420441 164.787354,276.614044 164.512711,279.973663 
	C164.290314,282.694275 165.035233,284.817902 167.987793,285.807159 
	C169.753967,286.398926 171.467194,286.837708 173.335129,286.818298 
	C175.077072,286.800140 177.334000,286.146027 177.789078,288.744415 
	C178.258148,291.422668 175.980377,291.918610 174.129501,292.670227 
	C169.808868,294.424683 165.502335,296.213806 161.187653,297.982941 
	C159.508850,298.671265 157.582321,299.135986 157.994659,301.722046 
	C159.800873,302.659424 161.202332,301.375916 162.644775,300.805420 
	C214.077347,280.463867 265.472900,260.028259 316.955383,239.814133 
	C321.405518,238.066849 323.612793,235.884033 322.703247,231.087936 
	C322.580994,230.443481 322.679199,229.757736 322.670227,229.091187 
	C322.528290,218.546326 322.503143,218.443695 332.653687,215.974030 
	C352.621552,211.115768 372.723114,207.360641 393.454437,208.818787 
	C407.309845,209.793320 407.888947,210.647263 401.698181,222.817902 
	C395.721741,234.567123 388.699524,245.704041 381.569122,256.768433 
	C377.580658,262.957520 373.861420,269.269684 371.871857,276.409241 
	C369.218170,285.931976 371.063263,290.687744 379.298157,295.747803 
	C382.000488,297.408295 384.085663,299.531372 384.573761,302.666748 
	C385.137756,306.289612 387.208466,306.944824 390.501801,307.056213 
	C399.148285,307.348694 407.784058,308.009033 416.415985,308.634430 
	C417.975006,308.747375 419.847382,308.634369 420.882172,310.987976 
	C416.402374,314.004974 411.090027,313.677460 406.180084,314.110687 
	C374.834229,316.876709 343.417999,318.424652 311.963837,319.485748 
	C289.497742,320.243713 267.029816,320.815002 244.563156,321.482178 
	C197.579254,322.877380 150.596710,322.233185 103.612785,322.152557 
	C97.797302,322.142578 91.976166,321.584106 86.171867,321.106781 
	C84.291298,320.952148 82.456192,320.244629 80.586761,319.035126 
	C84.984436,315.799835 90.185074,316.277374 95.431396,315.205811 
z"/>
<path fill="#000000" opacity="1.000000" stroke="none" 
	d="
M316.346191,217.884033 
	C316.233154,218.618332 316.189850,218.950974 316.194519,219.282944 
	C316.393372,233.407776 316.430603,233.512955 303.227386,238.119949 
	C298.438599,239.790924 293.899170,242.375900 288.570984,243.053345 
	C286.419373,237.065903 286.802155,231.234619 286.817657,225.449783 
	C286.822357,223.689499 288.102905,222.727203 289.519989,222.185837 
	C306.002197,215.889130 322.503326,209.641983 339.012238,203.415543 
	C339.412476,203.264587 339.959625,203.503113 340.670776,203.587570 
	C341.901855,206.601440 339.613892,207.296936 337.677979,208.064056 
	C332.263367,210.209579 326.806702,212.248917 321.388947,214.386688 
	C319.563324,215.107056 317.508270,215.525864 316.346191,217.884033 
z"/>
<path fill="#000000" opacity="1.000000" stroke="none" 
	d="
M285.764160,203.535645 
	C286.113922,200.617844 288.174896,200.127670 290.019257,199.416321 
	C304.124054,193.976257 318.223633,188.522568 332.350189,183.139587 
	C334.251617,182.415039 336.266510,181.026657 338.408630,182.946487 
	C338.544525,185.719757 336.208496,185.954697 334.505432,186.647522 
	C329.123535,188.836868 323.715210,190.966110 318.271545,192.996399 
	C315.741180,193.940125 314.828308,195.326065 314.985901,198.213943 
	C315.664795,210.655624 315.552185,210.675049 304.209686,215.127289 
	C299.882355,216.825897 295.462128,218.303299 291.201904,220.152588 
	C287.650085,221.694351 286.166931,220.426102 286.028473,216.931030 
	C285.857483,212.615707 285.824097,208.294937 285.764160,203.535645 
z"/>
<path fill="#000000" opacity="1.000000" stroke="none" 
	d="
M276.229980,204.313339 
	C282.571625,201.848267 282.892761,202.059540 283.210968,208.530746 
	C283.902802,222.598343 283.911072,222.620026 270.772949,227.650192 
	C265.867676,229.528244 260.913696,231.279099 255.399612,233.301575 
	C254.264023,226.835129 253.644958,221.123978 253.828705,215.333221 
	C253.913879,212.649094 256.060059,211.819595 258.099854,211.050797 
	C264.015320,208.821198 269.954102,206.653473 276.229980,204.313339 
z"/>
<path fill="#000000" opacity="1.000000" stroke="none" 
	d="
M279.741699,225.548843 
	C282.604950,224.537735 283.949554,225.440704 284.227173,228.025909 
	C284.280334,228.520645 284.316040,229.017258 284.361450,229.512848 
	C285.748352,244.656326 285.745728,244.649155 271.388916,249.972137 
	C267.658081,251.355392 263.941498,252.778244 260.233093,254.220718 
	C257.338287,255.346710 255.761353,254.581100 255.740082,251.295334 
	C255.727188,249.305069 255.775467,247.296661 255.534134,245.328568 
	C254.235168,234.735718 253.466553,235.374283 264.508698,231.404068 
	C269.500916,229.609116 274.410767,227.585022 279.741699,225.548843 
z"/>
<path fill="#000000" opacity="1.000000" stroke="none" 
	d="
M230.878052,243.791397 
	C236.680939,241.604584 242.133743,239.586975 247.539734,237.450912 
	C250.553329,236.260162 251.955902,237.300827 252.144516,240.383484 
	C252.408127,244.692551 252.669067,249.001816 252.917709,253.311768 
	C253.007645,254.870499 252.857895,256.527710 251.259689,257.171875 
	C242.552216,260.681488 233.875107,264.296356 224.340744,267.128235 
	C223.413895,260.840088 222.335129,255.132202 222.938889,249.369263 
	C223.380692,245.152161 227.823013,245.539368 230.878052,243.791397 
z"/>
<path fill="#000000" opacity="1.000000" stroke="none" 
	d="
M221.843567,234.936691 
	C221.790939,232.309280 221.751053,230.153976 221.711197,227.998688 
	C221.681808,226.408524 222.047745,224.880341 223.620377,224.256195 
	C232.173157,220.861862 240.762238,217.558945 249.628143,214.112091 
	C251.781860,220.839737 251.224335,226.978210 251.333313,233.048111 
	C251.352829,234.135178 250.683487,234.943771 249.683807,235.325317 
	C241.075653,238.610718 232.457275,241.869293 223.931976,245.101761 
	C221.494141,241.732056 222.165619,238.476013 221.843567,234.936691 
z"/>
<path fill="#000000" opacity="1.000000" stroke="none" 
	d="
M220.753998,215.804260 
	C220.616989,202.363632 220.619217,202.369553 232.708939,197.828247 
	C236.759018,196.306885 240.810608,194.787231 244.831284,193.190720 
	C247.596558,192.092697 249.278046,192.340698 249.385376,195.893890 
	C249.500702,199.711334 249.840240,203.530411 250.269165,207.327637 
	C250.702454,211.163269 248.928360,213.096024 245.429016,214.290588 
	C239.450424,216.331467 233.572922,218.670746 227.666733,220.920792 
	C221.460663,223.285049 221.110092,223.061951 220.753998,215.804260 
z"/>
<path fill="#000000" opacity="1.000000" stroke="none" 
	d="
M252.832275,203.708435 
	C252.610458,190.590668 252.592590,190.543091 264.668304,186.007095 
	C269.862488,184.056015 274.906952,181.590851 280.642334,180.376282 
	C282.218903,186.354080 282.294373,191.946014 282.286072,197.546509 
	C282.283936,198.978516 281.801727,200.289459 280.454956,200.823837 
	C271.890961,204.221909 263.293579,207.535873 254.928528,210.791412 
	C252.783875,208.509567 253.074219,206.268799 252.832275,203.708435 
z"/>
<path fill="#000000" opacity="1.000000" stroke="none" 
	d="
M199.393219,262.686890 
	C203.341187,262.412750 203.017975,265.040466 203.120453,267.293518 
	C203.194870,268.929718 202.591003,270.132507 200.780823,270.463196 
	C199.356216,270.723419 198.048813,270.601990 197.592117,269.043976 
	C196.915619,266.736115 195.928329,264.247528 199.393219,262.686890 
z"/>
<path fill="#000000" opacity="1.000000" stroke="none" 
	d="
M210.663849,269.694641 
	C206.834213,270.496521 206.004929,268.453674 206.013123,265.600067 
	C206.018265,263.805450 206.525848,262.337738 208.620987,262.109497 
	C210.691696,261.883881 211.611313,263.137665 211.935028,264.922485 
	C212.227829,266.536835 212.397324,268.190247 210.663849,269.694641 
z"/>
<path fill="#000000" opacity="1.000000" stroke="none" 
	d="
M193.109009,265.404053 
	C193.076691,267.990234 194.083618,271.046112 190.405502,270.939880 
	C186.886108,270.838226 187.849533,267.742493 187.645905,265.600494 
	C187.522522,264.302948 188.143417,263.349335 189.511490,263.093842 
	C191.177368,262.782745 192.451813,263.264374 193.109009,265.404053 
z"/>
<path fill="#000000" opacity="1.000000" stroke="none" 
	d="
M179.605591,270.189392 
	C179.248734,269.380737 179.025650,268.906708 179.015579,268.428192 
	C178.974564,266.477234 178.542297,264.086975 181.529404,264.078766 
	C184.417755,264.070801 184.322891,266.496124 184.256958,268.419647 
	C184.144516,271.699432 182.184845,271.647888 179.605591,270.189392 
z"/>
</svg>